<?xml version="1.0" encoding="utf-8"?>
<svg height="800px" width="800px" version="1.1" id="Layer_1" xmlns="http://www.w3.org/2000/svg" viewBox="0 0 512 512">
  <path style="fill: rgb(75, 139, 190);" d="M371.497,448.632c-52.78,0-95.721-42.941-95.721-95.721V212.541 c0-65.127,52.985-118.112,118.111-118.112S512,147.414,512,212.541c0,40.391-20.742,77.67-54.054,99.215 c6.101,12.759,9.271,26.723,9.271,41.156C467.218,405.692,424.277,448.632,371.497,448.632z"/>
  <g>
    <path style="fill: rgb(48, 105, 152);" d="M393.888,269.26c-31.275,0-56.719-25.444-56.719-56.719s25.444-56.72,56.719-56.72 s56.72,25.444,56.72,56.72S425.163,269.26,393.888,269.26z"/>
    <path style="fill: rgb(48, 105, 152);" d="M371.497,397.309c-24.481,0-44.398-19.917-44.398-44.397c0-24.48,19.917-44.397,44.398-44.397 c24.481,0,44.398,19.917,44.398,44.397C415.894,377.392,395.978,397.309,371.497,397.309z"/>
  </g>
  <path style="fill: rgb(75, 139, 190);" d="M140.503,448.632c-52.781,0-95.722-42.941-95.722-95.721c0-14.433,3.171-28.397,9.273-41.156 C20.742,290.212,0,252.932,0,212.541C0,147.413,52.985,94.429,118.112,94.429s118.112,52.986,118.112,118.112v140.371 C236.224,405.692,193.284,448.632,140.503,448.632z"/>
  <path style="fill: rgb(100, 100, 100);" d="M245.525,137.303l-58.233-50.43c-6.679-5.785-7.405-15.889-1.62-22.569 c5.785-6.683,15.889-7.404,22.57-1.621L256,104.043l47.758-41.359c6.677-5.787,16.783-5.059,22.569,1.621 c5.786,6.679,5.059,16.784-1.621,22.569l-58.233,50.43C260.462,142.511,251.538,142.51,245.525,137.303z"/>
  <path style="fill: rgb(100, 100, 100);" d="M326.327,64.305c-5.786-6.681-15.891-7.407-22.569-1.621L256,104.043v37.166 c3.734,0,7.468-1.301,10.474-3.905l58.233-50.43C331.387,81.089,332.112,70.983,326.327,64.305z"/>
  <g>
    <path style="fill: rgb(48, 105, 152);" d="M118.112,269.26c-31.275,0-56.719-25.444-56.719-56.719s25.444-56.72,56.719-56.72 c31.276,0,56.72,25.444,56.72,56.72S149.388,269.26,118.112,269.26z"/>
    <path style="fill: rgb(48, 105, 152);" d="M140.503,397.309c-24.481,0-44.398-19.917-44.398-44.397c0-24.48,19.917-44.397,44.398-44.397 s44.398,19.917,44.398,44.397C184.901,377.392,164.983,397.309,140.503,397.309z"/>
  </g>
  <path style="fill: rgb(255, 232, 115);" d="M256,453.222c-28.549,0-51.776-23.226-51.776-51.775V160.984c0-28.549,23.227-51.776,51.776-51.776 c28.549,0,51.776,23.227,51.776,51.776v240.463C307.776,429.996,284.549,453.222,256,453.222z"/>
  <path style="fill: rgb(255, 212, 59);" d="M256,109.208v344.014c28.549,0,51.776-23.226,51.776-51.775V160.984 C307.776,132.436,284.549,109.208,256,109.208z"/>
</svg>